<svg width="200" height="32" viewBox="0 0 200 32" fill="none" xmlns="http://www.w3.org/2000/svg">
<path fill-rule="evenodd" clip-rule="evenodd" d="M20.2033 10.371L27.3047 5.77647L25.4035 2.83788L17.1844 8.15555L12.885 0L9.78887 1.63218L13.5365 8.74118L4.67253 6.57427L0 25.6878L24.7351 31.7346L29.4077 12.6211L20.2033 10.371ZM7.24127 10.8053L25.1766 15.1898L22.1664 27.5036L4.23102 23.119L7.24127 10.8053ZM123.904 9.9729L127.094 10.8309L128.348 22.2709L135.41 13.0529L138.336 13.8449L139.854 25.3509L146.652 16.0669L149.842 16.9249L140.096 30.2569L137.302 29.5089L135.74 17.7169L128.48 27.1329L125.686 26.3849L123.904 9.9729ZM56.1332 11.2049L59.4332 12.0849L61.6112 24.1409L69.5092 14.7909L72.8092 15.6929L61.7872 28.6729L59.1912 27.9689L56.1332 11.2049ZM45.93 16.0229L40.54 14.5929L41.354 11.6009L55.082 15.2969L54.268 18.2669L48.9 16.8149L45.71 28.7169L42.74 27.9249L45.93 16.0229ZM77.888 26.4509C78.592 27.3456 79.5966 27.9689 80.902 28.3209C81.518 28.4822 82.0826 28.5629 82.596 28.5629C83.652 28.5629 84.554 28.2842 85.302 27.7269C86.05 27.1549 86.5633 26.3482 86.842 25.3069C86.9593 24.8669 87.018 24.4709 87.018 24.1189C87.018 23.2682 86.7613 22.5056 86.248 21.8309C85.7346 21.1416 85.0086 20.4816 84.07 19.8509C83.2193 19.2936 82.6326 18.8609 82.31 18.5529C81.9873 18.2449 81.826 17.9296 81.826 17.6069C81.826 17.4896 81.848 17.3649 81.892 17.2329C81.9653 16.9249 82.112 16.6902 82.332 16.5289C82.5666 16.3676 82.8526 16.2869 83.19 16.2869C83.4393 16.2869 83.718 16.3309 84.026 16.4189C84.6713 16.5949 85.1406 16.8882 85.434 17.2989C85.742 17.7096 85.8813 18.2522 85.852 18.9269L88.822 18.5309C88.866 17.2842 88.536 16.2136 87.832 15.3189C87.1426 14.4242 86.1453 13.8009 84.84 13.4489C84.224 13.2876 83.6593 13.2069 83.146 13.2069C82.09 13.2069 81.188 13.4929 80.44 14.0649C79.692 14.6222 79.1786 15.4216 78.9 16.4629C78.7826 16.9029 78.724 17.2989 78.724 17.6509C78.724 18.5016 78.9806 19.2716 79.494 19.9609C80.0073 20.6356 80.7333 21.2882 81.672 21.9189C82.5226 22.4762 83.1093 22.9089 83.432 23.2169C83.7546 23.5249 83.916 23.8402 83.916 24.1629C83.916 24.2802 83.894 24.4049 83.85 24.5369C83.7766 24.8449 83.6226 25.0796 83.388 25.2409C83.168 25.4022 82.8893 25.4829 82.552 25.4829C82.3026 25.4829 82.024 25.4389 81.716 25.3509C80.4546 25.0136 79.846 24.1776 79.89 22.8429L76.92 23.2389C76.876 24.4856 77.1986 25.5562 77.888 26.4509ZM92.6723 11.7769L95.6423 12.5689L94.0363 18.5309L100.57 20.2689L102.154 14.3289L105.146 15.1209L101.142 29.9929L98.1723 29.2009L99.7783 23.2389L93.2443 21.5009L91.6603 27.4409L88.6683 26.6489L92.6723 11.7769ZM108.389 26.8029C109.254 27.5069 110.266 28.0129 111.425 28.3209C112.129 28.5116 112.847 28.6069 113.581 28.6069C114.71 28.6069 115.773 28.3796 116.771 27.9249C117.768 27.4556 118.619 26.7882 119.323 25.9229C120.041 25.0576 120.555 24.0456 120.863 22.8869C121.053 22.1829 121.149 21.4642 121.149 20.7309C121.149 19.6016 120.914 18.5382 120.445 17.5409C119.99 16.5436 119.33 15.6929 118.465 14.9889C117.599 14.2702 116.587 13.7569 115.429 13.4489C114.725 13.2582 114.006 13.1629 113.273 13.1629C112.143 13.1629 111.08 13.3976 110.083 13.8669C109.085 14.3216 108.227 14.9816 107.509 15.8469C106.805 16.7122 106.299 17.7242 105.991 18.8829C105.8 19.5869 105.705 20.3056 105.705 21.0389C105.705 22.1682 105.932 23.2316 106.387 24.2289C106.856 25.2262 107.523 26.0842 108.389 26.8029ZM113.537 25.5269C113.141 25.5269 112.708 25.4682 112.239 25.3509C111.168 25.0722 110.325 24.5369 109.709 23.7449C109.093 22.9529 108.785 22.0436 108.785 21.0169C108.785 20.6062 108.843 20.1662 108.961 19.6969C109.239 18.6262 109.767 17.7829 110.545 17.1669C111.337 16.5509 112.246 16.2429 113.273 16.2429C113.757 16.2429 114.204 16.3016 114.615 16.4189C115.671 16.6976 116.507 17.2329 117.123 18.0249C117.753 18.8022 118.069 19.7042 118.069 20.7309C118.069 21.2149 118.01 21.6622 117.893 22.0729C117.614 23.1436 117.079 23.9869 116.287 24.6029C115.495 25.2189 114.578 25.5269 113.537 25.5269ZM157.782 24.9109L165.614 27.0009L166.054 29.6629L169.332 30.5429L166.428 13.8229L163.678 13.0749L152.81 26.0989L156.066 26.9789L157.782 24.9109ZM163.964 17.5189L165.02 23.6569L159.96 22.3149L163.964 17.5189ZM175.579 11.9749L181.409 13.5369C182.656 13.8742 183.639 14.5049 184.357 15.4289C185.091 16.3382 185.457 17.3942 185.457 18.5969C185.457 19.0369 185.384 19.5502 185.237 20.1369C184.915 21.3542 184.291 22.3296 183.367 23.0629C182.458 23.7816 181.402 24.1409 180.199 24.1409C179.745 24.1409 179.224 24.0676 178.637 23.9209L175.777 23.1509L174.589 27.6389L171.597 26.8469L175.579 11.9749ZM179.429 20.9509C179.723 21.0242 179.965 21.0609 180.155 21.0609C180.683 21.0609 181.131 20.9069 181.497 20.5989C181.879 20.2909 182.135 19.8729 182.267 19.3449C182.341 19.0809 182.377 18.8389 182.377 18.6189C182.377 18.1056 182.223 17.6656 181.915 17.2989C181.622 16.9176 181.189 16.6536 180.617 16.5069L177.757 15.7369L176.569 20.1809L179.429 20.9509ZM195.009 13.5369L189.179 11.9749L185.197 26.8469L188.189 27.6389L189.377 23.1509L192.237 23.9209C192.824 24.0676 193.344 24.1409 193.799 24.1409C195.002 24.1409 196.058 23.7816 196.967 23.0629C197.891 22.3296 198.514 21.3542 198.837 20.1369C198.984 19.5502 199.057 19.0369 199.057 18.5969C199.057 17.3942 198.69 16.3382 197.957 15.4289C197.238 14.5049 196.256 13.8742 195.009 13.5369ZM193.755 21.0609C193.564 21.0609 193.322 21.0242 193.029 20.9509L190.169 20.1809L191.357 15.7369L194.217 16.5069C194.789 16.6536 195.222 16.9176 195.515 17.2989C195.823 17.6656 195.977 18.1056 195.977 18.6189C195.977 18.8389 195.94 19.0809 195.867 19.3449C195.735 19.8729 195.478 20.2909 195.097 20.5989C194.73 20.9069 194.283 21.0609 193.755 21.0609Z" fill="white"/>
</svg>
